HIERARCHY
ROOT Hips
{
	OFFSET 0.000000 0.000000 0.000000
	CHANNELS 6 Xposition Yposition Zposition Xrotation Yrotation Zrotation
	JOINT LeftUpLeg_virtual
	{
		OFFSET 0.000000 0.000000 0.000000
		CHANNELS 3 Xrotation Yrotation Zrotation
		JOINT LeftUpLeg
		{
			OFFSET 15.427100 -6.655098 0.678600
			CHANNELS 3 Xrotation Yrotation Zrotation
			JOINT LeftLeg
			{
				OFFSET 4.081073 -39.591068 13.024000
				CHANNELS 3 Xrotation Yrotation Zrotation
				JOINT LeftFoot
				{
					OFFSET -4.081074 -37.707932 -15.979700
					CHANNELS 3 Xrotation Yrotation Zrotation
					JOINT LeftToeBase
					{
						OFFSET 5.346399 -15.068900 20.645000
						CHANNELS 3 Xrotation Yrotation Zrotation
						JOINT LeftToe_End
						{
							OFFSET 2.754700 0.931300 11.300900
							CHANNELS 3 Xrotation Yrotation Zrotation
							End Site
							{
								OFFSET 0 0 0
							}
						}
					}
				}
			}
		}
	}
	JOINT RightUpLeg_virtual
	{
		OFFSET 0.000000 0.000000 0.000000
		CHANNELS 3 Xrotation Yrotation Zrotation
		JOINT RightUpLeg
		{
			OFFSET -15.569500 -6.655098 0.678600
			CHANNELS 3 Xrotation Yrotation Zrotation
			JOINT RightLeg
			{
				OFFSET -4.081825 -39.591045 13.023800
				CHANNELS 3 Xrotation Yrotation Zrotation
				JOINT RightFoot
				{
					OFFSET 4.081824 -37.707954 -15.979600
					CHANNELS 3 Xrotation Yrotation Zrotation
					JOINT RightToeBase
					{
						OFFSET -5.346400 -15.068900 20.645000
						CHANNELS 3 Xrotation Yrotation Zrotation
						JOINT RightToe_End
						{
							OFFSET -2.754700 0.931300 11.300900
							CHANNELS 3 Xrotation Yrotation Zrotation
							End Site
							{
								OFFSET 0 0 0
							}
						}
					}
				}
			}
		}
	}
	JOINT Spine_virtual
	{
		OFFSET 0.000000 0.000000 0.000000
		CHANNELS 3 Xrotation Yrotation Zrotation
		JOINT Spine
		{
			OFFSET -0.279200 12.230698 -2.892100
			CHANNELS 3 Xrotation Yrotation Zrotation
			JOINT Spine1
			{
				OFFSET -0.232667 10.192268 -1.242267
				CHANNELS 3 Xrotation Yrotation Zrotation
				JOINT Spine1_split
				{
					OFFSET -0.232667 10.192268 -1.242267
					CHANNELS 3 Xrotation Yrotation Zrotation
					JOINT Spine2
					{
						OFFSET -0.232667 10.192268 -1.242267
						CHANNELS 3 Xrotation Yrotation Zrotation
						JOINT Neck_virtual
						{
							OFFSET 0.000000 0.000000 0.000000
							CHANNELS 3 Xrotation Yrotation Zrotation
							JOINT Neck
							{
								OFFSET -0.418800 17.814194 8.416900
								CHANNELS 3 Xrotation Yrotation Zrotation
								JOINT Head
								{
									OFFSET 0.000000 7.031097 3.806800
									CHANNELS 3 Xrotation Yrotation Zrotation
									JOINT HeadTop_End
									{
										OFFSET 0.000000 24.646606 12.978600
										CHANNELS 3 Xrotation Yrotation Zrotation
										End Site
										{
											OFFSET 0 0 0
										}
									}
								}
							}
						}
						JOINT LeftShoulder_virtual
						{
							OFFSET 0.000000 0.000000 0.000000
							CHANNELS 3 Xrotation Yrotation Zrotation
							JOINT LeftShoulder
							{
								OFFSET 8.476499 7.247704 -3.868750
								CHANNELS 3 Xrotation Yrotation Zrotation
								JOINT LeftShoulder_split
								{
									OFFSET 8.476499 7.247704 -3.868750
									CHANNELS 3 Xrotation Yrotation Zrotation
									JOINT LeftArm
									{
										OFFSET 9.308998 -2.777710 0.208600
										CHANNELS 3 Xrotation Yrotation Zrotation
										JOINT LeftForeArm
										{
											OFFSET 29.972298 0.000000 0.000000
											CHANNELS 3 Xrotation Yrotation Zrotation
											JOINT LeftHand
											{
												OFFSET 26.026505 0.000000 0.000000
												CHANNELS 3 Xrotation Yrotation Zrotation
												End Site
												{
													OFFSET 0 0 0
												}
											}
										}
									}
								}
							}
						}
						JOINT RightShoulder_virtual
						{
							OFFSET 0.000000 0.000000 0.000000
							CHANNELS 3 Xrotation Yrotation Zrotation
							JOINT RightShoulder
							{
								OFFSET -7.570500 7.247704 -3.868750
								CHANNELS 3 Xrotation Yrotation Zrotation
								JOINT RightShoulder_split
								{
									OFFSET -7.570500 7.247704 -3.868750
									CHANNELS 3 Xrotation Yrotation Zrotation
									JOINT RightArm
									{
										OFFSET -9.308998 -2.777710 0.208500
										CHANNELS 3 Xrotation Yrotation Zrotation
										JOINT RightForeArm
										{
											OFFSET -29.972300 0.000000 0.000000
											CHANNELS 3 Xrotation Yrotation Zrotation
											JOINT RightHand
											{
												OFFSET -26.026505 0.000000 0.000000
												CHANNELS 3 Xrotation Yrotation Zrotation
												End Site
												{
													OFFSET 0 0 0
												}
											}
										}
									}
								}
							}
						}
					}
				}
			}
		}
	}
}
MOTION
Frames: 5
Frame Time: 0.03333333
1.062148 127.549706 14.724583 0.000000 0.000000 0.000000 -88.558901 -5.576320 -1.177745 -7.649753 19.850271 15.352337 5.272252 4.625566 4.360494 15.197851 29.551514 -22.523155 -7.569960 0.288433 1.662711 0.000000 0.000000 0.000000 -90.748086 -3.507970 -0.248755 -8.873339 -15.968142 -16.349443 17.343211 -1.779857 -7.243034 25.813908 -34.242026 30.949240 -12.500202 1.336972 -0.691954 0.000000 0.000000 0.000000 -88.041193 -6.477233 -3.125336 2.934484 -1.456653 0.734219 -2.533870 -1.399743 0.566366 0.988049 2.334316 -0.224296 0.000000 0.000000 0.000000 -2.120571 -1.712746 0.409306 -10.835193 -3.016594 -0.911317 15.506135 -0.342212 3.545554 0.000000 0.000000 0.000000 -0.463740 -1.668099 0.756757 0.717286 1.462878 -5.525402 -0.665028 0.496976 -2.710913 37.876292 -28.009981 -55.023970 -147.673485 -88.760139 -146.538321 0.000000 0.000000 0.000000 -0.453093 -1.378283 0.032452 0.582738 -3.180068 13.284600 2.961040 4.655290 -0.620629 28.462033 23.975649 47.395212 178.487309 79.308994 -179.868729 0.000000 0.000000 0.000000 
0.819500 127.704071 15.170830 0.000000 0.000000 0.000000 -88.555547 -5.206188 -0.931208 -8.021284 19.979784 15.631960 5.227897 4.682792 4.225222 15.473636 29.363291 -22.731886 -7.631269 0.287554 1.625350 0.000000 0.000000 0.000000 -90.259379 -3.211211 -0.122503 -8.804110 -15.420796 -16.372701 17.136782 -1.843387 -7.210213 26.189305 -34.316482 30.959390 -12.381659 1.334422 -0.656578 0.000000 0.000000 0.000000 -87.906399 -6.565512 -3.280982 2.710600 -1.552197 0.717568 -2.627148 -1.454873 0.456172 0.775068 1.935822 -0.370459 0.000000 0.000000 0.000000 -2.252524 -1.729884 0.315845 -10.858438 -2.864901 -0.913470 15.669111 -0.488419 3.343264 0.000000 0.000000 0.000000 -0.463698 -1.713167 0.654622 0.752766 0.900902 -5.238788 -0.194229 0.395965 -2.404516 37.699922 -28.215663 -55.044969 -127.299672 -88.883198 -126.077082 0.000000 0.000000 0.000000 -0.516978 -1.400965 -0.062767 0.611273 -3.558875 13.245330 2.799415 4.440637 0.299410 27.364697 24.797727 48.669230 -179.979378 80.085532 178.499809 0.000000 0.000000 0.000000 
0.674920 127.896988 15.479317 0.000000 0.000000 0.000000 -88.422113 -5.123699 -0.878472 -8.247357 19.848566 15.923073 5.235188 4.706452 4.056896 15.603296 29.134920 -22.591424 -7.667261 0.278999 1.554019 0.000000 0.000000 0.000000 -89.650611 -3.086327 -0.093300 -9.108137 -15.082639 -16.339223 17.054096 -1.960646 -7.195200 26.740874 -34.322384 31.095051 -12.644921 1.350425 -0.659531 0.000000 0.000000 0.000000 -87.633485 -6.724425 -3.427695 2.504126 -1.616502 0.768228 -2.758858 -1.511495 0.262034 0.563083 1.586653 -0.444238 0.000000 0.000000 0.000000 -2.317968 -1.778044 0.172015 -10.990973 -2.805977 -0.780655 15.663686 -0.732564 3.245936 0.000000 0.000000 0.000000 -0.588304 -1.747381 0.476453 0.811810 -0.005592 -4.677300 0.060107 0.912513 -2.545144 38.238541 -28.803871 -54.172788 -121.120673 -88.995562 -119.879819 0.000000 0.000000 0.000000 -0.609656 -1.424707 -0.197796 0.659537 -4.168835 13.194260 2.552753 4.054301 0.721267 24.131615 25.274799 52.084468 -178.875223 81.535779 177.272465 0.000000 0.000000 0.000000 
0.655428 128.036865 15.644871 0.000000 0.000000 0.000000 -88.198082 -5.380774 -1.028656 -8.336779 19.341967 16.075916 5.384484 4.616851 3.941941 15.558768 28.931476 -22.163955 -7.642998 0.265506 1.442498 0.000000 0.000000 0.000000 -89.125663 -3.152345 -0.087156 -9.770604 -14.992417 -16.328419 17.108785 -2.138829 -7.239621 27.131308 -34.358857 31.163127 -13.051322 1.376088 -0.689243 0.000000 0.000000 0.000000 -87.281239 -6.950966 -3.505410 2.348876 -1.648084 0.831280 -2.898594 -1.543048 0.036268 0.345005 1.434943 -0.434729 0.000000 0.000000 0.000000 -2.304256 -1.829130 0.009165 -11.133736 -2.822794 -0.606334 15.569445 -1.016764 3.181859 0.000000 0.000000 0.000000 -0.825950 -1.756798 0.265247 0.886997 -1.083795 -4.056078 0.056652 1.921998 -3.093399 39.235550 -29.505956 -52.669044 -127.167809 -89.176944 -125.956338 0.000000 0.000000 0.000000 -0.733563 -1.431383 -0.336188 0.754640 -4.885784 13.195814 2.370634 3.677440 0.503821 19.157468 24.919597 56.999605 -178.100557 83.688320 176.381248 0.000000 0.000000 0.000000 
0.777945 128.097198 15.699787 0.000000 0.000000 0.000000 -87.919281 -5.890309 -1.218177 -8.285091 18.478606 15.960151 5.655094 4.367160 3.924450 15.401119 28.770386 -21.638447 -7.618882 0.251395 1.299517 0.000000 0.000000 0.000000 -88.743186 -3.421588 -0.044620 -10.696707 -15.032857 -16.462626 17.258488 -2.372567 -7.359948 26.984887 -34.578167 30.900011 -13.162449 1.396960 -0.725654 0.000000 0.000000 0.000000 -86.901002 -7.206183 -3.462453 2.278152 -1.667029 0.820925 -2.994246 -1.513288 -0.153385 0.249149 1.321258 -0.455141 0.000000 0.000000 0.000000 -2.225651 -1.861067 -0.124491 -11.167971 -2.877009 -0.527297 15.563844 -1.212420 3.032997 0.000000 0.000000 0.000000 -1.106502 -1.733868 0.086823 0.957211 -2.120225 -3.658356 -0.184774 2.956041 -3.536404 40.329409 -30.040231 -50.889301 -145.913796 -89.320160 -144.773154 0.000000 0.000000 0.000000 -0.868823 -1.418698 -0.431675 0.878637 -5.532085 13.329540 2.074600 3.633183 -0.019420 13.377837 23.562915 62.275732 -177.900541 86.464758 176.088287 0.000000 0.000000 0.000000 
